<?xml version="1.0" encoding="UTF-8" standalone="no"?>
<svg
   xmlns:dc="http://purl.org/dc/elements/1.1/"
   xmlns:cc="http://creativecommons.org/ns#"
   xmlns:rdf="http://www.w3.org/1999/02/22-rdf-syntax-ns#"
   xmlns:svg="http://www.w3.org/2000/svg"
   xmlns="http://www.w3.org/2000/svg"
   xmlns:sodipodi="http://sodipodi.sourceforge.net/DTD/sodipodi-0.dtd"
   xmlns:inkscape="http://www.inkscape.org/namespaces/inkscape"
   viewBox="0 0 200 246.15361"
   id="svg13"
   height="246.15361"
   width="200"
   version="1.1"
   sodipodi:docname="logo-white.svg"
   inkscape:version="0.92.3 (2405546, 2018-03-11)">
  <sodipodi:namedview
     pagecolor="#ffffff"
     bordercolor="#666666"
     borderopacity="1"
     objecttolerance="10"
     gridtolerance="10"
     guidetolerance="10"
     inkscape:pageopacity="0"
     inkscape:pageshadow="2"
     inkscape:window-width="1920"
     inkscape:window-height="992"
     id="namedview10"
     showgrid="false"
     inkscape:zoom="0.95875092"
     inkscape:cx="100"
     inkscape:cy="123.07681"
     inkscape:window-x="0"
     inkscape:window-y="26"
     inkscape:window-maximized="1"
     inkscape:current-layer="svg13" />
  <metadata
     id="metadata19">
    <rdf:RDF>
      <cc:Work
         rdf:about="">
        <dc:format>image/svg+xml</dc:format>
        <dc:type
           rdf:resource="http://purl.org/dc/dcmitype/StillImage" />
        <dc:title></dc:title>
      </cc:Work>
    </rdf:RDF>
  </metadata>
  <defs
     id="defs17" />
  <g
     transform="matrix(3.4315971,0,0,3.4315971,-623.03974,-387.89298)"
     id="Layer1000"
     style="fill:#ffffff">
    <path
       id="path4"
       style="fill:#ffffff;fill-rule:evenodd"
       d="m 209.3057,179.1213 c -0.5258,0 -0.9882,-0.0732 -1.3884,-0.2141 -0.3971,-0.144 -0.7217,-0.3373 -0.9748,-0.5833 -0.2537,-0.2458 -0.4601,-0.5491 -0.62,-0.915 -0.1616,-0.366 -0.2713,-0.7504 -0.3342,-1.1523 -0.0604,-0.4026 -0.0915,-0.8552 -0.0915,-1.3567 v -4.4861 c 0,-0.5358 0.0311,-1.014 0.0963,-1.4326 0.063,-0.4184 0.1752,-0.8099 0.332,-1.171 0.1598,-0.3631 0.3659,-0.6613 0.6199,-0.8969 0.256,-0.235 0.5831,-0.4178 0.9777,-0.5513 0.3948,-0.1333 0.8572,-0.1985 1.383,-0.1985 1.1421,0 1.963,0.3082 2.4574,0.925 0.4963,0.6196 0.7423,1.5267 0.7423,2.7266 v 1.0114 h -1.6758 v -0.8966 c 0,-0.1933 -0.002,-0.3447 -0.005,-0.4544 -0.002,-0.11 -0.008,-0.246 -0.0153,-0.4107 -0.006,-0.1622 -0.0215,-0.2903 -0.0422,-0.3818 -0.0182,-0.0939 -0.0468,-0.2013 -0.0785,-0.324 -0.0338,-0.1202 -0.0757,-0.2172 -0.1282,-0.2849 -0.0496,-0.0706 -0.1148,-0.144 -0.1905,-0.222 -0.0762,-0.081 -0.1646,-0.1386 -0.2616,-0.178 -0.0964,-0.0368 -0.2117,-0.0703 -0.3421,-0.0941 -0.1338,-0.0261 -0.2827,-0.0391 -0.4448,-0.0391 -0.2458,0 -0.4601,0.0263 -0.6429,0.0813 -0.1857,0.0519 -0.3345,0.1384 -0.4521,0.2506 -0.1177,0.1154 -0.2149,0.2435 -0.288,0.379 -0.0731,0.1389 -0.1281,0.3166 -0.1647,0.5338 -0.0366,0.2165 -0.0598,0.4257 -0.0731,0.627 -0.0128,0.2013 -0.0185,0.4521 -0.0185,0.7478 v 5.0244 c 0,0.9541 0.1208,1.6177 0.3589,1.9916 0.2404,0.3711 0.6661,0.557 1.2804,0.557 0.233,0 0.4368,-0.0238 0.6095,-0.0762 0.1695,-0.0494 0.3109,-0.1355 0.4209,-0.2532 0.1097,-0.1153 0.1956,-0.2378 0.2633,-0.3659 0.0661,-0.1281 0.1154,-0.3008 0.144,-0.5179 0.0318,-0.2166 0.0502,-0.4178 0.0576,-0.601 0.008,-0.1831 0.0133,-0.4235 0.0133,-0.7191 v -0.936 h 1.6758 v 0.9439 c 0,0.4836 -0.0294,0.9173 -0.0915,1.3017 -0.0604,0.3818 -0.1647,0.7401 -0.3144,1.0743 -0.1488,0.3348 -0.3421,0.6117 -0.5825,0.8314 -0.2378,0.2197 -0.5465,0.3923 -0.9173,0.5179 -0.3742,0.125 -0.8053,0.188 -1.294,0.188 z m 4.7551,-0.1384 v -9.0683 h 1.4086 v 6.0962 l 2.7348,-6.0962 h 1.3173 v 9.0683 h -1.3856 v -6.1512 l -2.7181,6.1512 z m 9.834,-1.1109 c 0.3452,-0.006 0.5958,-0.1386 0.7503,-0.3977 0.1519,-0.2613 0.2299,-0.7004 0.2299,-1.3172 v -2.7499 c 0,-0.5729 -0.0629,-0.978 -0.1854,-1.2209 -0.1227,-0.2432 -0.3271,-0.3634 -0.612,-0.3634 -0.3628,0 -0.7656,0.1514 -1.2101,0.4575 v 3.7383 c 0,0.6741 0.0762,1.1523 0.2299,1.4324 0.1542,0.2792 0.4184,0.4209 0.7974,0.4209 z m -0.1539,1.2413 c -0.8051,0.005 -1.433,-0.261 -1.8794,-0.7996 -0.4473,-0.5389 -0.6693,-1.3227 -0.6693,-2.3474 v -4.695 c 0,-0.6222 0.0105,-1.1608 0.0366,-1.6129 0.0258,-0.4527 0.0731,-0.8442 0.1409,-1.1767 0.0708,-0.3319 0.1465,-0.6009 0.2355,-0.8076 0.0859,-0.2064 0.2061,-0.3844 0.358,-0.5309 0.154,-0.1488 0.3082,-0.2585 0.4649,-0.3342 0.1545,-0.0732 0.358,-0.1466 0.6095,-0.2172 0.2483,-0.0731 0.4909,-0.1329 0.729,-0.18 0.2379,-0.0498 0.5361,-0.1255 0.8966,-0.2298 0.3612,-0.1052 0.709,-0.2229 1.0457,-0.3558 l 0.4131,1.3615 c -0.3266,0.1497 -0.6509,0.2698 -0.9749,0.3611 -0.324,0.0916 -0.5856,0.1514 -0.7869,0.1752 -0.199,0.0264 -0.3923,0.0629 -0.5802,0.1123 -0.1911,0.047 -0.3348,0.1074 -0.4337,0.1805 -0.0995,0.0703 -0.1911,0.1911 -0.2722,0.358 -0.081,0.1698 -0.136,0.3923 -0.1647,0.667 -0.0286,0.277 -0.0419,0.6373 -0.0419,1.0871 v 1.0588 c 0.5408,-0.3476 1.0851,-0.5228 1.6311,-0.5228 0.2905,0 0.557,0.0573 0.7973,0.1696 0.2404,0.1122 0.4575,0.2905 0.6509,0.5309 0.1933,0.2432 0.3452,0.5831 0.4527,1.0168 0.1068,0.4337 0.1593,0.9462 0.1593,1.5372 v 1.7252 c 0,0.557 -0.0445,1.0377 -0.1386,1.4459 -0.0916,0.4099 -0.2172,0.7424 -0.3739,1.0009 -0.1593,0.2563 -0.3606,0.4626 -0.6041,0.6146 -0.2458,0.1542 -0.502,0.2611 -0.771,0.3189 -0.269,0.0598 -0.5777,0.0884 -0.9303,0.0884 z m 4.496,-0.1304 v -12.6966 h 4.8175 v 1.3096 h -3.0478 v 11.387 z m 5.8946,0.106 v -1.3623 c 0.7115,0.0709 1.2209,0.0496 1.5319,-0.0652 0.3112,-0.1154 0.4861,-0.3319 0.523,-0.6508 0.034,-0.3192 0.005,-0.7401 -0.0862,-1.2603 l -2.1011,-9.464 h 1.6351 l 0.7118,3.5906 0.6431,4.0201 0.5593,-3.9971 0.637,-3.6136 h 1.6562 l -1.9119,9.4957 c -0.0335,0.1727 -0.0811,0.4131 -0.1361,0.7186 -0.1122,0.6276 -0.2086,1.0693 -0.2871,1.3201 -0.0783,0.2537 -0.243,0.5125 -0.4913,0.779 -0.2458,0.2642 -0.5936,0.4235 -1.0383,0.4782 -0.4439,0.0524 -1.0582,0.0581 -1.8454,0.011 z m -28.2359,5.5131 v -2.6761 h 0.4159 v 1.7988 l 0.8067,-1.7988 h 0.3889 v 2.6761 h -0.4087 v -1.8153 l -0.8025,1.8153 z m 2.0977,0 0.0294,-2.6761 h 0.364 l 0.5942,1.6432 0.5964,-1.6432 h 0.3639 l 0.0295,2.6761 h -0.4158 v -1.5953 l -0.4969,1.3331 h -0.152 l -0.4969,-1.3271 v 1.5893 z m 2.4386,0 v -0.5493 h 0.4978 v 0.5493 z m 1.9865,0 0.0703,-3.7471 h 0.4697 l 0.7036,2.8885 0.7075,-2.8885 h 0.47 l 0.07,3.7471 h -0.4133 l -0.0278,-2.5242 -0.6573,2.5242 h -0.294 l -0.6559,-2.5228 -0.0269,2.5228 z m 2.9996,0 v -0.5493 h 0.4978 v 0.5493 z m 2.5274,-0.7707 c 0.0873,0.005 0.1599,9e-4 0.2169,-0.0116 0.0572,-0.0116 0.1043,-0.0315 0.1397,-0.0587 0.0363,-0.0269 0.0632,-0.07 0.0817,-0.1287 0.0178,-0.0587 0.03,-0.1227 0.0362,-0.1922 0.006,-0.0694 0.009,-0.1618 0.009,-0.2778 v -0.9357 c 0,-0.0964 -0.002,-0.176 -0.006,-0.2384 -0.004,-0.0623 -0.0117,-0.1227 -0.0239,-0.1797 -0.0116,-0.0573 -0.0286,-0.1012 -0.0493,-0.1327 -0.021,-0.0309 -0.0502,-0.0572 -0.0873,-0.0796 -0.0371,-0.023 -0.0811,-0.0377 -0.1318,-0.0445 -0.0519,-0.006 -0.1142,-0.008 -0.1877,-0.003 -0.001,0 -0.017,0 -0.0453,5e-4 -0.0286,9e-4 -0.0448,0.002 -0.0471,0.002 v 2.2782 c 0.002,0 0.0185,0 0.0477,9e-4 0.0303,6e-4 0.0456,0.001 0.047,0.001 z m -0.6965,0 c 0.002,0 0.0145,-8e-4 0.0386,-0.001 0.0238,-9e-4 0.0377,-9e-4 0.0408,-9e-4 v -2.2782 c -0.003,0 -0.0161,-8e-4 -0.04,-0.002 -0.0232,-5e-4 -0.0357,-5e-4 -0.0371,-5e-4 -0.074,-0.005 -0.1366,-0.003 -0.1874,0.003 -0.051,0.007 -0.0958,0.0215 -0.1321,0.0445 -0.0368,0.0224 -0.0663,0.0487 -0.087,0.0796 -0.0218,0.0315 -0.038,0.0754 -0.0501,0.1327 -0.0117,0.057 -0.0202,0.1174 -0.0233,0.1797 -0.004,0.0624 -0.006,0.142 -0.006,0.2384 v 0.9357 c 0,0.116 0.003,0.2084 0.009,0.2778 0.006,0.0695 0.0179,0.1335 0.0363,0.1922 0.0176,0.0587 0.0448,0.1018 0.0811,0.1287 0.0363,0.0272 0.0833,0.0471 0.1403,0.0587 0.057,0.0125 0.1295,0.0161 0.2168,0.0116 z m 0.0794,0.9357 v -0.6264 c -0.003,0 -0.0309,8e-4 -0.0825,0.002 -0.0524,0.001 -0.0788,0.002 -0.0802,0.002 -0.2894,0.0255 -0.5077,-0.0403 -0.6559,-0.1967 -0.1471,-0.1568 -0.2214,-0.419 -0.2214,-0.7864 v -0.9357 c 0,-0.3665 0.0743,-0.6273 0.2214,-0.7832 0.1482,-0.1556 0.3696,-0.2259 0.665,-0.2089 h 0.0742 c 0.0502,0.001 0.0763,0.002 0.0794,0.002 v -0.7215 h 0.5224 v 0.7215 c 0.002,0 0.0315,-9e-4 0.0879,-0.001 0.0556,-8e-4 0.0848,-8e-4 0.0879,-8e-4 0.2925,-0.0184 0.5122,0.051 0.659,0.2066 0.1466,0.1559 0.2206,0.4176 0.2206,0.7855 v 0.9357 c 0,0.3657 -0.074,0.6282 -0.2223,0.7864 -0.1474,0.1581 -0.3665,0.2236 -0.6573,0.1967 -0.001,0 -0.0309,-9e-4 -0.087,-0.002 -0.0564,-0.002 -0.0865,-0.002 -0.0888,-0.002 v 0.6264 z m 2.0274,-0.165 v -0.5493 h 0.4977 v 0.5493 z m 2.5205,-2.12 h 0.2367 c 0.2291,0 0.3867,-0.0408 0.4728,-0.1219 0.0859,-0.0819 0.129,-0.2375 0.129,-0.4683 0,-0.0949 -0.002,-0.1729 -0.007,-0.2338 -0.005,-0.061 -0.0144,-0.1188 -0.0306,-0.1729 -0.0156,-0.0539 -0.0363,-0.0964 -0.0618,-0.1256 -0.0263,-0.0295 -0.0618,-0.0541 -0.1071,-0.0757 -0.0465,-0.0207 -0.0998,-0.0354 -0.1613,-0.0425 -0.061,-0.008 -0.1367,-0.0113 -0.2268,-0.0113 h -0.2438 z m -0.5224,2.12 v -3.7471 h 0.9289 c 0.3254,0 0.5607,0.0871 0.7075,0.2631 0.1457,0.1752 0.2192,0.4328 0.2192,0.7716 0,0.3047 -0.0788,0.5414 -0.2362,0.712 -0.1573,0.1704 -0.3866,0.2554 -0.6882,0.2554 h -0.4088 v 1.745 z m 2.6192,-1.5978 h 0.5678 v -0.2421 c 0,-0.0712 -0.002,-0.1304 -0.006,-0.1783 -0.003,-0.0485 -0.0108,-0.095 -0.0224,-0.1403 -0.0114,-0.0448 -0.027,-0.0803 -0.0462,-0.1066 -0.0193,-0.0255 -0.0463,-0.0454 -0.0803,-0.061 -0.034,-0.0147 -0.0748,-0.0224 -0.1233,-0.0224 -0.1173,0 -0.1953,0.0426 -0.2324,0.1268 -0.0377,0.0839 -0.057,0.2437 -0.057,0.479 z m 0.2962,1.6364 c -0.1564,0 -0.2868,-0.0224 -0.3912,-0.0672 -0.1034,-0.0439 -0.1842,-0.1134 -0.2429,-0.2075 -0.0578,-0.0941 -0.0989,-0.2044 -0.1219,-0.3302 -0.0232,-0.1256 -0.0348,-0.2806 -0.0348,-0.4643 v -0.6126 c 0,-0.1851 0.0124,-0.3419 0.0371,-0.4691 0.0247,-0.1273 0.0672,-0.2367 0.1259,-0.3303 0.0583,-0.0924 0.1394,-0.1604 0.2429,-0.2043 0.1026,-0.0431 0.2307,-0.0655 0.3827,-0.0655 0.0949,0 0.1797,0.009 0.2531,0.0278 0.074,0.0175 0.138,0.0422 0.1913,0.0739 0.053,0.0315 0.0987,0.074 0.1364,0.1282 0.038,0.053 0.0689,0.1094 0.0918,0.1689 0.0233,0.0601 0.0417,0.1318 0.0556,0.2174 0.013,0.0851 0.0224,0.1698 0.0269,0.254 0.005,0.0848 0.007,0.1834 0.007,0.2962 l -0.002,0.2169 h -1.0539 v 0.3571 c 0,0.006 0,0.0162 0,0.0292 0,0.0757 9e-4,0.1313 0.001,0.1676 9e-4,0.0363 0.004,0.0833 0.009,0.1411 0.005,0.0579 0.0139,0.1018 0.0255,0.1304 0.0122,0.0284 0.0286,0.0587 0.0502,0.0902 0.0207,0.0317 0.0484,0.0541 0.0825,0.0663 0.034,0.0133 0.0748,0.0193 0.1227,0.0193 0.1071,0 0.1797,-0.0363 0.2183,-0.1094 0.0385,-0.0735 0.0578,-0.1837 0.0578,-0.3311 v -0.1627 h 0.4839 v 0.104 c 0,0.5771 -0.2523,0.8657 -0.7555,0.8657 z m 1.2067,-0.0386 v -2.6761 h 0.4768 v 2.3235 h 0.4706 v -2.3235 h 0.4768 v 2.3235 h 0.4884 v -2.3235 h 0.479 v 2.6761 z m 3.3358,-1.5978 h 0.5678 v -0.2421 c 0,-0.0712 -0.002,-0.1304 -0.006,-0.1783 -0.003,-0.0485 -0.0108,-0.095 -0.0224,-0.1403 -0.0113,-0.0448 -0.0269,-0.0803 -0.0462,-0.1066 -0.0193,-0.0255 -0.0462,-0.0454 -0.0802,-0.061 -0.034,-0.0147 -0.0749,-0.0224 -0.1233,-0.0224 -0.1174,0 -0.1953,0.0426 -0.2325,0.1268 -0.0377,0.0839 -0.057,0.2437 -0.057,0.479 z m 0.2963,1.6364 c -0.1565,0 -0.2869,-0.0224 -0.3912,-0.0672 -0.1035,-0.0439 -0.1843,-0.1134 -0.2429,-0.2075 -0.0579,-0.0941 -0.099,-0.2044 -0.1219,-0.3302 -0.0233,-0.1256 -0.0349,-0.2806 -0.0349,-0.4643 v -0.6126 c 0,-0.1851 0.0125,-0.3419 0.0371,-0.4691 0.0247,-0.1273 0.0672,-0.2367 0.1259,-0.3303 0.0584,-0.0924 0.1395,-0.1604 0.2429,-0.2043 0.1026,-0.0431 0.2308,-0.0655 0.3827,-0.0655 0.095,0 0.1797,0.009 0.2531,0.0278 0.074,0.0175 0.1381,0.0422 0.1914,0.0739 0.053,0.0315 0.0986,0.074 0.1363,0.1282 0.038,0.053 0.0689,0.1094 0.0919,0.1689 0.0232,0.0601 0.0416,0.1318 0.0555,0.2174 0.0131,0.0851 0.0224,0.1698 0.027,0.254 0.005,0.0848 0.007,0.1834 0.007,0.2962 l -0.002,0.2169 h -1.054 v 0.3571 c 0,0.006 0,0.0162 0,0.0292 0,0.0757 9e-4,0.1313 0.001,0.1676 8e-4,0.0363 0.004,0.0833 0.009,0.1411 0.005,0.0579 0.0139,0.1018 0.0255,0.1304 0.0122,0.0284 0.0287,0.0587 0.0502,0.0902 0.0207,0.0317 0.0485,0.0541 0.0825,0.0663 0.034,0.0133 0.0748,0.0193 0.1227,0.0193 0.1072,0 0.1797,-0.0363 0.2183,-0.1094 0.0386,-0.0735 0.0578,-0.1837 0.0578,-0.3311 v -0.1627 h 0.4839 v 0.104 c 0,0.5771 -0.2523,0.8657 -0.7554,0.8657 z m 1.4876,-0.0386 v -2.3051 h -0.4992 v -0.371 h 1.5029 v 0.371 h -0.5085 v 2.3051 z m 1.3017,0 v -2.6761 h 0.4952 v 1.123 h 0.6327 v -1.123 h 0.4952 v 2.6761 h -0.4952 v -1.1888 h -0.6327 v 1.1888 z m 2.5696,-1.5978 h 0.5677 v -0.2421 c 0,-0.0712 -0.002,-0.1304 -0.006,-0.1783 -0.003,-0.0485 -0.0108,-0.095 -0.0224,-0.1403 -0.0113,-0.0448 -0.0269,-0.0803 -0.0462,-0.1066 -0.0193,-0.0255 -0.0462,-0.0454 -0.0802,-0.061 -0.034,-0.0147 -0.0748,-0.0224 -0.1233,-0.0224 -0.1174,0 -0.1953,0.0426 -0.2325,0.1268 -0.0377,0.0839 -0.0569,0.2437 -0.0569,0.479 z m 0.2962,1.6364 c -0.1565,0 -0.2869,-0.0224 -0.3912,-0.0672 -0.1035,-0.0439 -0.1842,-0.1134 -0.2429,-0.2075 -0.0579,-0.0941 -0.099,-0.2044 -0.1219,-0.3302 -0.0233,-0.1256 -0.0349,-0.2806 -0.0349,-0.4643 v -0.6126 c 0,-0.1851 0.0125,-0.3419 0.0372,-0.4691 0.0246,-0.1273 0.0671,-0.2367 0.1258,-0.3303 0.0584,-0.0924 0.1395,-0.1604 0.2429,-0.2043 0.1027,-0.0431 0.2308,-0.0655 0.3827,-0.0655 0.095,0 0.1797,0.009 0.2532,0.0278 0.0739,0.0175 0.138,0.0422 0.1913,0.0739 0.053,0.0315 0.0986,0.074 0.1363,0.1282 0.038,0.053 0.0689,0.1094 0.0919,0.1689 0.0232,0.0601 0.0416,0.1318 0.0555,0.2174 0.0131,0.0851 0.0224,0.1698 0.027,0.254 0.005,0.0848 0.007,0.1834 0.007,0.2962 l -0.002,0.2169 h -1.0539 v 0.3571 c 0,0.006 0,0.0162 0,0.0292 0,0.0757 8e-4,0.1313 0.001,0.1676 8e-4,0.0363 0.004,0.0833 0.009,0.1411 0.005,0.0579 0.0139,0.1018 0.0255,0.1304 0.0122,0.0284 0.0287,0.0587 0.0502,0.0902 0.0207,0.0317 0.0485,0.0541 0.0825,0.0663 0.034,0.0133 0.0748,0.0193 0.1228,0.0193 0.1071,0 0.1797,-0.0363 0.2182,-0.1094 0.0386,-0.0735 0.0578,-0.1837 0.0578,-0.3311 v -0.1627 h 0.4839 v 0.104 c 0,0.5771 -0.2523,0.8657 -0.7554,0.8657 z m 1.6903,-1.6364 h 0.2423 c 0.101,0 0.1775,-0.0292 0.2299,-0.0888 0.053,-0.0584 0.0794,-0.155 0.0794,-0.2891 0,-0.1219 -0.0309,-0.2083 -0.0918,-0.2594 -0.061,-0.0516 -0.1497,-0.0771 -0.2676,-0.0771 h -0.1922 z m 0,1.2251 h 0.1766 c 0.1236,0 0.2191,-0.0301 0.2871,-0.0893 0.0678,-0.0595 0.1018,-0.1706 0.1018,-0.3334 0,-0.068 -0.004,-0.1272 -0.0116,-0.1774 -0.008,-0.051 -0.0202,-0.0918 -0.0369,-0.1233 -0.0178,-0.0318 -0.0357,-0.0581 -0.055,-0.078 -0.0184,-0.0201 -0.0439,-0.0348 -0.0754,-0.0442 -0.0317,-0.009 -0.0603,-0.0153 -0.0873,-0.0184 -0.0263,-0.002 -0.0595,-0.004 -0.1003,-0.004 h -0.199 z m -0.4836,0.3727 v -2.6761 h 0.7483 c 0.131,0 0.2444,0.0175 0.3402,0.0524 0.0955,0.0346 0.1704,0.0825 0.2237,0.1434 0.0532,0.061 0.0926,0.1282 0.1173,0.2004 0.0247,0.0735 0.0386,0.1545 0.0394,0.2433 0.003,0.1465 -0.021,0.2684 -0.072,0.367 -0.0516,0.099 -0.1434,0.169 -0.2761,0.2092 0.2761,0.0564 0.4144,0.2832 0.4144,0.6804 0,0.1235 -0.0124,0.2307 -0.0362,0.3211 -0.0247,0.0902 -0.065,0.1712 -0.1214,0.2429 -0.0561,0.0718 -0.1349,0.1259 -0.2358,0.1619 -0.1012,0.0363 -0.2239,0.0541 -0.3688,0.0541 z m 2.5968,-0.3911 c 0.0632,0 0.1256,-0.0247 0.1865,-0.0749 0.061,-0.0493 0.1066,-0.098 0.1367,-0.1465 v -0.7569 c -0.1729,0.0981 -0.2878,0.1698 -0.3433,0.2169 -0.1451,0.1173 -0.2169,0.2568 -0.2169,0.4181 0,0.108 0.0202,0.1927 0.061,0.2531 0.0402,0.0601 0.0995,0.0902 0.176,0.0902 z m -0.1967,0.4297 c -0.1519,0 -0.2795,-0.0632 -0.3827,-0.1891 -0.1035,-0.1255 -0.155,-0.2698 -0.155,-0.4328 0,-0.1264 0.0207,-0.2413 0.0623,-0.3447 0.0408,-0.1026 0.0851,-0.186 0.1321,-0.2492 0.0471,-0.0632 0.1279,-0.1298 0.2429,-0.1984 0.1148,-0.0686 0.2044,-0.1171 0.2676,-0.1457 0.0632,-0.0286 0.1744,-0.0748 0.3325,-0.1398 0.009,-0.005 0.0156,-0.008 0.0202,-0.009 v -0.1922 c 0,-0.1735 -0.0176,-0.2962 -0.0533,-0.3697 -0.0355,-0.0731 -0.1072,-0.1094 -0.2152,-0.1094 -0.1873,0 -0.2809,0.1265 -0.2809,0.3796 v 0.1335 l -0.4907,-0.0187 c 0,-0.0269 0.002,-0.0601 0.005,-0.0987 0.0153,-0.267 0.0901,-0.4614 0.2236,-0.5833 0.1341,-0.1225 0.3263,-0.1834 0.5763,-0.1834 0.2577,0 0.4445,0.0708 0.5584,0.2112 0.1151,0.1411 0.1721,0.3534 0.1721,0.6366 v 1.2229 c 0,0.2021 0.0147,0.4158 0.0448,0.6417 h -0.4522 c -0.0314,-0.1488 -0.053,-0.2809 -0.0654,-0.3957 -0.0372,0.1211 -0.1018,0.2228 -0.1928,0.3079 -0.0913,0.0839 -0.2078,0.1264 -0.3495,0.1264 z" />
    <path
       id="path6"
       style="fill:#ffffff;fill-rule:evenodd"
       d="m 207.9272,159.6617 v 2.0523 h 4.0564 v 2.0282 h -6.0846 v -4.0805 c -4.7551,-0.2231 -9.1032,-2.0058 -12.543,-4.8481 l 1.4414,-1.4411 c 3.31,2.6798 7.5252,4.2851 12.1156,4.2851 4.5893,0 8.8038,-1.6047 12.113,-4.2829 l 1.438,1.4434 c -3.439,2.8395 -7.7842,4.6208 -12.5368,4.8436 z m 13.9669,-9.1542 c 2.681,-3.3103 4.2877,-7.5268 4.2877,-12.1187 0,-5.3209 -2.1569,-10.1381 -5.6438,-13.625 -3.0379,-3.0379 -7.0861,-5.0658 -11.5971,-5.5378 v -2.0381 c 5.0714,0.4794 9.6256,2.7363 13.0311,6.1419 3.854,3.8542 6.238,9.1785 6.238,15.059 0,5.1531 -1.8307,9.8793 -4.8768,13.5629 z m -17.009,-31.2815 c -3.8002,0.3977 -7.272,1.8995 -10.088,4.1794 l -1.4414,-1.4414 c 3.1938,-2.639 7.1705,-4.3645 11.5294,-4.7763 z m -14.3969,32.7201 c -2.6391,-3.1938 -4.3642,-7.1703 -4.7761,-11.5294 h 2.0381 c 0.3977,3.8004 1.8995,7.2717 4.1794,10.088 z m -4.7761,-15.5852 c 0.4119,-4.3585 2.1368,-8.3355 4.7758,-11.5293 l 1.4414,1.4414 c -2.2796,2.8162 -3.7814,6.2875 -4.1791,10.0879 z" />
    <path
       id="path8"
       style="fill:#ffffff;fill-rule:evenodd"
       d="m 219.081,149.1231 c 2.1588,2.1585 4.3174,4.3171 6.4763,6.476 l -1.4341,1.434 c -2.1585,-2.1588 -4.3174,-4.3174 -6.4763,-6.4763 -2.8601,2.5254 -6.6183,4.0584 -10.7339,4.0584 -3.7497,0 -7.2023,-1.2728 -9.9499,-3.4087 l 1.4465,-1.4465 c 2.3703,1.7751 5.3141,2.827 8.5034,2.827 3.9206,0 7.4704,-1.5897 10.0394,-4.1584 2.5691,-2.5694 4.1585,-6.1189 4.1585,-10.0398 0,-3.9206 -1.5894,-7.4704 -4.1585,-10.0394 -2.569,-2.5691 -6.1188,-4.1585 -10.0394,-4.1585 -3.1893,0 -6.1331,1.0517 -8.5034,2.827 l -1.4468,-1.4468 c 2.4979,-1.9423 5.5789,-3.1702 8.9362,-3.3772 0,-3.0526 0,-6.1055 0,-9.1582 h 2.0279 c 0,3.053 3e-4,6.1053 3e-4,9.1582 4.0765,0.2517 7.7462,2.0087 10.4593,4.7217 2.9361,2.9358 4.7526,6.9928 4.7526,11.4732 0,4.1156 -1.5327,7.8735 -4.0581,10.7343 z m -24.9857,-0.7841 c -1.745,-2.2445 -2.9135,-4.9592 -3.2828,-7.9223 h 2.0466 c 0.3441,2.4058 1.2909,4.6168 2.683,6.4755 z m -3.2828,-11.9781 c 0.3693,-2.963 1.5381,-5.6778 3.2828,-7.922 l 1.4468,1.4468 c -1.3918,1.8584 -2.3389,4.0694 -2.683,6.4752 z" />
    <path
       id="path10"
       style="fill:#ffffff;fill-rule:evenodd"
       d="m 206.9131,127.2335 c 3.0799,0 5.8694,1.2488 7.8879,3.2675 2.0185,2.0185 3.2675,4.8076 3.2675,7.8879 0,3.0804 -1.249,5.8694 -3.2675,7.888 -2.0185,2.0185 -4.8076,3.2675 -7.8879,3.2675 -2.7153,0 -5.204,-0.9707 -7.1383,-2.5832 l -10.0722,10.0722 -1.434,-1.434 10.0722,-10.0722 c -1.4097,-1.6907 -2.3285,-3.8054 -2.5376,-6.1241 h -14.2435 v -2.0283 h 14.2435 c 0.2091,-2.3187 1.1281,-4.4332 2.5376,-6.1241 l -10.0722,-10.0722 1.434,-1.434 10.0722,10.0722 c 1.9343,-1.6127 4.4234,-2.5832 7.1383,-2.5832 z m 6.4539,4.7015 c -1.6514,-1.6516 -3.9334,-2.6733 -6.4539,-2.6733 -2.5206,0 -4.8026,1.0217 -6.454,2.6733 -1.6516,1.6514 -2.6733,3.9334 -2.6733,6.4539 0,2.5206 1.0217,4.8026 2.6733,6.454 1.6514,1.6514 3.9336,2.6732 6.454,2.6732 2.5203,0 4.8025,-1.0218 6.4539,-2.6732 1.6514,-1.6514 2.6733,-3.9336 2.6733,-6.454 0,-2.5203 -1.0219,-4.8025 -2.6733,-6.4539 z" />
  </g>
</svg>
